# xmcd
#
# Track frame offsets: 
#        150
#        18346
#        36406
#        54105
#        71999
#        88146
#        107107
#        122555
#        140842
#        157776
#        173769
#        188591
#
# Disc length: 2734 seconds
#
# Revision: 3
# Processed by: cddbd v1.5.2PL0 Copyright (c) Steve Scherf et al.
# Submitted via: ExactAudioCopyFreeDBPlugin 1.0
#
DISCID=9e0aac0c
DTITLE=Fiordaliso - FlashBack I Grandi Successi Originali CD1
DYEAR=2002
DGENRE=Italian/Pop
TTITLE0=Non Voglio Mica La Luna
TTITLE1=Fatti Miei
TTITLE2=Li Bel Lu La
TTITLE3=Sola No Non Ci Sto
TTITLE4=No More
TTITLE5=Che Altro Ce
TTITLE6=Sarà Cosi
TTITLE7=Oltre Il Cielo
TTITLE8=La Nave Bianca
TTITLE9=Il Mio Angelo
TTITLE10=Il Canto Del Cigno
TTITLE11=Legnano Spotorno
EXTD=YEAR: 2009
EXTT0=
EXTT1=
EXTT2=
EXTT3=
EXTT4=
EXTT5=
EXTT6=
EXTT7=
EXTT8=
EXTT9=
EXTT10=
EXTT11=
PLAYORDER=
